PathFileType	4	(X/Y/Z)	/Users/itak/Documents/Research/Walk-IL/dataset/trc/00503_00183.trc
DataRate	CameraRate	NumFrames	NumMarkers	Units	OrigDataRate	OrigDataStartFrame	OrigNumFrames
100.000000	100.000000	4	53	mm	100.000000	441	707
Frame#	Time	RPSI			LPSI			L3			STRN			T10			C7			CLAV			RBAK			LBAK			LSHO			LUPA			LAEL			LAOL			LWTS			LWPS			LFRA			LIFD			LHPS			LHTS			RSHO			RUPA			RAEL			RAOL			RWTS			RWPS			RFRA			RIFD			RHTS			RHPS			RBHD			LFHD			RFHD			LBHD			LHIP			RHIP			RASI			LASI			LKNE			LTHI			LANK			LTIP			LTOE			LMT1			LMT5			LHEE			RKNE			RTHI			RANK			RTIP			RTOE			RMT1			RMT5			RHEE			
		X1	Y1	Z1	X2	Y2	Z2	X3	Y3	Z3	X4	Y4	Z4	X5	Y5	Z5	X6	Y6	Z6	X7	Y7	Z7	X8	Y8	Z8	X9	Y9	Z9	X10	Y10	Z10	X11	Y11	Z11	X12	Y12	Z12	X13	Y13	Z13	X14	Y14	Z14	X15	Y15	Z15	X16	Y16	Z16	X17	Y17	Z17	X18	Y18	Z18	X19	Y19	Z19	X20	Y20	Z20	X21	Y21	Z21	X22	Y22	Z22	X23	Y23	Z23	X24	Y24	Z24	X25	Y25	Z25	X26	Y26	Z26	X27	Y27	Z27	X28	Y28	Z28	X29	Y29	Z29	X30	Y30	Z30	X31	Y31	Z31	X32	Y32	Z32	X33	Y33	Z33	X34	Y34	Z34	X35	Y35	Z35	X36	Y36	Z36	X37	Y37	Z37	X38	Y38	Z38	X39	Y39	Z39	X40	Y40	Z40	X41	Y41	Z41	X42	Y42	Z42	X43	Y43	Z43	X44	Y44	Z44	X45	Y45	Z45	X46	Y46	Z46	X47	Y47	Z47	X48	Y48	Z48	X49	Y49	Z49	X50	Y50	Z50	X51	Y51	Z51	X52	Y52	Z52	X53	Y53	Z53	

442	4.41	41.98331451416016	960.7277221679688	209.6455688476562	97.26415252685547	955.9299926757812	98.82514953613281	67.39100646972656	1026.55419921875	149.9458465576172	270.2861633300781	1187.213256835938	237.1387329101562	56.66313934326172	1131.386840820312	149.9694366455078	95.19352722167969	1361.427368164062	167.2967529296875	238.4981994628906	1282.985595703125	223.5096588134766	18.3824577331543	1240.369140625	230.4391021728516	103.9113616943359	1307.431274414062	76.68238067626953	220.4208984375	1351.524780273438	44.89001846313477	235.8187561035156	1226.291137695312	-16.47028350830078	261.2146606445312	1016.606567382812	-30.4620246887207	164.3742065429688	1007.216186523438	-10.5018196105957	319.7487182617188	833.0104370117188	51.39357757568359	281.9472961425781	794.59375	-25.82544136047363	279.24462890625	934.8242797851562	-23.0428466796875	319.2513122558594	676.0271606445312	65.59590148925781	299.2931823730469	741.5415649414062	-6.10844898223877	339.4532775878906	754.7222900390625	43.64371490478516	92.66395568847656	1356.945068359375	325.6546325683594	55.12078475952148	1291.118896484375	374.09375	44.74520492553711	1024.486328125	424.3554992675781	10.92499351501465	1006.057861328125	370.4641418457031	155.9931945800781	825.8426513671875	440.59228515625	67.83914184570312	802.089111328125	454.3522033691406	47.63065338134766	970.1729736328125	434.2645874023438	160.7729339599609	666.1175537109375	446.7185363769531	162.1188659667969	733.01416015625	471.2228088378906	91.02616119384766	728.3876342773438	465.9920349121094	96.14224243164062	1515.969360351562	253.1957092285156	267.5465698242188	1580.324340820312	172.5279388427734	214.3809509277344	1577.660034179688	288.3069458007812	149.3997802734375	1514.117553710938	103.2897186279297	250.336669921875	876.1845092773438	33.4749641418457	82.72637176513672	862.2672119140625	369.7449340820312	200.5999450683594	906.1389770507812	351.826171875	301.7210083007812	910.766357421875	131.7291870117188	264.85009765625	451.1283264160156	73.58441925048828	279.3659057617188	610.5405883789062	62.52674102783203	-45.61221313476562	193.0300598144531	-87.48782348632812	171.8999633789062	350.7384643554688	16.64960479736328	30.03201293945312	33.89079666137695	9.401972770690918	-21.32279968261719	93.17407989501953	23.12881088256836	8.779088973999023	99.31159973144531	-76.77828216552734	-92.6798095703125	227.1130981445312	-39.05868911743164	166.5137329101562	476.4417724609375	337.76171875	118.4022445678711	732.668701171875	381.6477661132812	142.1116333007812	45.33959579467773	269.9711303710938	192.8310241699219	330.9671325683594	323.5332946777344	341.6122436523438	37.33073806762695	325.9689636230469	300.5952758789062	43.09611129760742	262.4951171875	235.4510498046875	40.15531921386719	335.5211791992188	120.3722991943359	34.96950149536133	203.2414093017578	
443	4.42	45.77233505249023	960.7849731445312	213.2447814941406	100.4779281616211	955.8287353515625	102.2216110229492	71.09305572509766	1027.105102539062	153.6986083984375	274.2772521972656	1187.447021484375	239.9192962646484	60.43494415283203	1131.866821289062	153.8279876708984	99.08248901367188	1361.799194335938	170.9553070068359	242.5388488769531	1283.2421875	226.4201049804688	22.57816886901855	1240.845458984375	234.5736083984375	107.2037887573242	1307.722290039062	80.31204223632812	223.6195678710938	1351.661987304688	47.85567092895508	238.7194976806641	1226.369750976562	-13.39913845062256	264.8151245117188	1016.836853027344	-26.74322891235352	167.9856262207031	1007.155029296875	-7.090485572814941	324.7953186035156	834.566650390625	55.52352905273438	287.7921142578125	795.3516845703125	-21.66615867614746	283.5390319824219	935.5181884765625	-19.1553897857666	327.1559143066406	677.7098999023438	70.08088684082031	306.1312561035156	742.6864013671875	-1.800509929656982	345.9405212402344	756.7113647460938	47.93731689453125	97.42735290527344	1357.42919921875	329.3477478027344	60.20812225341797	1291.623657226562	378.0937805175781	50.34658813476562	1025.031616210938	428.7143249511719	16.08373069763184	1006.548278808594	375.1606140136719	161.6083831787109	826.3108520507812	444.1148986816406	73.65514373779297	802.6895751953125	458.6814880371094	53.35273742675781	970.7315673828125	438.6437072753906	166.3791961669922	666.6494750976562	450.4715576171875	168.0384674072266	733.5966186523438	474.8599243164062	96.86219024658203	728.951416015625	470.3437805175781	100.6268081665039	1516.325317382812	256.5427856445312	271.7256469726562	1580.53955078125	175.09423828125	219.0095367431641	1578.083129882812	291.0807189941406	153.2145538330078	1514.202880859375	106.3965072631836	254.0267486572266	876.4996948242188	36.93977355957031	86.89629364013672	862.2867431640625	373.2383422851562	204.6482086181641	906.3397216796875	355.0596618652344	305.1981201171875	911.5140380859375	134.7408142089844	275.7998046875	452.0158081054688	79.52940368652344	286.8319091796875	611.4043579101562	66.99093627929688	-35.26805114746094	195.494140625	-81.50032043457031	182.7802581787109	352.3954162597656	22.76138114929199	43.34677124023438	36.09006881713867	12.69389152526855	-8.727364540100098	94.60888671875	27.65481567382812	20.3922290802002	102.6066207885742	-72.31923675537109	-82.39168548583984	228.4741363525391	-32.39577484130859	168.6552734375	476.029052734375	339.7864074707031	122.2652435302734	732.5397338867188	384.6304626464844	142.1620178222656	45.37295913696289	269.9678344726562	194.1367340087891	330.5735778808594	324.6236572265625	341.6912841796875	37.25666046142578	325.9631042480469	300.611083984375	42.98598098754883	262.50244140625	235.4760131835938	40.12014007568359	335.5608215332031	120.3658905029297	35.06366729736328	203.2555694580078	
444	4.43	49.50635528564453	960.8353271484375	216.7049407958984	103.6698837280273	955.7674560546875	105.5030822753906	74.74163818359375	1027.679443359375	157.3610687255859	278.1863403320312	1187.71923828125	242.6099853515625	64.09977722167969	1132.379150390625	157.5983276367188	102.8777389526367	1362.197143554688	174.5482940673828	246.4913635253906	1283.533447265625	229.2439880371094	26.70034790039062	1241.340698242188	238.6457824707031	110.4104995727539	1308.044067382812	83.87019348144531	226.7169036865234	1351.841918945312	50.75136947631836	241.5147705078125	1226.51171875	-10.42590045928955	268.2766418457031	1017.151977539062	-23.1520824432373	171.4795074462891	1007.159362792969	-3.770491123199463	329.8067321777344	836.1815795898438	59.38595581054688	293.4620971679688	796.2031860351562	-17.7221622467041	287.6914978027344	936.3286743164062	-15.45069122314453	334.9343566894531	679.4800415039062	74.30108642578125	312.78173828125	743.920654296875	2.275830507278442	352.3235168457031	758.7640380859375	51.93688201904297	102.1283493041992	1357.9423828125	332.9591979980469	65.23703002929688	1292.15576171875	382.0209045410156	55.90525436401367	1025.602172851562	432.9713439941406	21.20340919494629	1007.064208984375	379.7599487304688	167.1962127685547	826.80419921875	447.5072937011719	79.48844146728516	803.3052978515625	462.893798828125	59.04720687866211	971.3157958984375	442.9090881347656	171.9981231689453	667.2185668945312	454.0762939453125	173.9608459472656	734.2127075195312	478.3507080078125	102.7059555053711	729.5457153320312	474.5354309082031	105.0849304199219	1516.732177734375	259.8350524902344	275.9088745117188	1580.727172851562	177.6060485839844	223.6511535644531	1578.493041992188	293.7998046875	156.9971923828125	1514.338745117188	109.4494857788086	257.7340087890625	876.9150390625	40.30020141601562	90.94620513916016	862.27587890625	376.5771484375	208.56884765625	906.5435180664062	358.2129516601562	308.6170043945312	912.3309936523438	137.7026062011719	286.4225769042969	453.1857604980469	85.393310546875	294.2553100585938	612.4320678710938	71.34825134277344	-24.50312042236328	197.0880737304688	-75.27388763427734	193.5186157226562	354.0856628417969	28.85305023193359	58.0155143737793	38.3631706237793	16.4976634979248	4.84171199798584	95.54451751708984	32.54480743408203	32.97947311401367	105.443603515625	-67.50392913818359	-71.82318115234375	228.7902374267578	-25.55461120605469	170.7564544677734	475.6201171875	341.7647705078125	126.0498123168945	732.3988647460938	387.5086975097656	142.2058868408203	45.40834045410156	269.9699096679688	195.4039459228516	330.199462890625	325.6625366210938	341.7584228515625	37.18339157104492	325.9640502929688	300.6223754882812	42.88050842285156	262.5176696777344	235.4944763183594	40.08332443237305	335.5983581542969	120.3538360595703	35.16862487792969	203.2699127197266	
445	4.44	53.17541122436523	960.8806762695312	220.03515625	106.8636093139648	955.749755859375	108.6614837646484	78.34352874755859	1028.262084960938	160.9408264160156	282.016845703125	1188.030029296875	245.2250213623047	67.66510009765625	1132.910888671875	161.2910461425781	106.5854797363281	1362.6171875	178.0724334716797	250.3578186035156	1283.859008789062	231.9922332763672	30.73868751525879	1241.845947265625	242.6553344726562	113.544319152832	1308.391967773438	87.35659027099609	229.7242126464844	1352.063354492188	53.58486938476562	244.21875	1226.718383789062	-7.54764461517334	271.602294921875	1017.550903320312	-19.71477127075195	174.8565368652344	1007.2255859375	-0.5489519238471985	334.7745361328125	837.8430786132812	62.97935485839844	298.9471435546875	797.138427734375	-13.99446296691895	291.6950378417969	937.2400512695312	-11.94721412658691	342.5227966308594	681.3206787109375	78.26853942871094	319.1994323730469	745.2251586914062	6.121981620788574	358.5628051757812	760.85400390625	55.65133666992188	106.7557907104492	1358.480834960938	336.4856872558594	70.19490814208984	1292.71240234375	385.8674011230469	61.4131965637207	1026.196166992188	437.1228332519531	26.29187202453613	1007.596923828125	384.2518615722656	172.76025390625	827.3275146484375	450.7698364257812	85.33097076416016	803.933349609375	466.9827270507812	64.70528411865234	971.9235229492188	447.060791015625	177.6395263671875	667.8287353515625	457.5278930664062	179.8918762207031	734.8603515625	481.6916809082031	108.5637741088867	730.1729736328125	478.5599670410156	109.5141296386719	1517.1923828125	263.0711975097656	280.0956115722656	1580.881713867188	180.0644989013672	228.3030242919922	1578.887573242188	296.4648742675781	160.7580108642578	1514.523681640625	112.4506912231445	261.4423217773438	877.4268798828125	43.54828262329102	94.88321685791016	862.2288208007812	379.7674865722656	212.3721466064453	906.7495727539062	361.3034973144531	311.9777221679688	913.2053833007812	140.6280517578125	296.7310485839844	454.6165161132812	91.16001892089844	301.5896911621094	613.610595703125	75.58824920654297	-13.305588722229	197.8191680908203	-68.86128997802734	204.1461334228516	355.7773132324219	34.89760971069336	73.78096008300781	40.56819534301758	20.82027244567871	19.23251724243164	95.98667144775391	37.79781723022461	46.38774490356445	107.7359466552734	-62.33670806884766	-60.93907928466797	228.1260833740234	-18.60904121398926	172.8125610351562	475.2191772460938	343.6672058105469	129.7482604980469	732.240234375	390.288330078125	142.2478179931641	45.45402526855469	269.9642028808594	196.6404571533203	329.8434753417969	326.6421813964844	341.8156127929688	37.11219787597656	325.9692077636719	300.63330078125	42.77664184570312	262.5396728515625	235.5101623535156	40.04838562011719	335.6299133300781	120.3404693603516	35.28547286987305	203.2782287597656	
